<svg width="246" height="200" viewBox="0 0 246 200" fill="none" xmlns="http://www.w3.org/2000/svg">
<path fill-rule="evenodd" clip-rule="evenodd" d="M144.47 100L144.141 99.4301L201.547 0L155.359 0L121.047 59.4301L86.735 0H40.547L97.953 99.4301L97.624 100H98.282L97.953 99.4301L121.047 59.4301L144.141 99.4301L143.812 100H144.47Z" fill="#FB7B05"/>
<path fill-rule="evenodd" clip-rule="evenodd" d="M97.624 100L40 199.808H86.188L121.047 139.43L155.906 199.808H202.094L144.47 100H143.812L121.047 139.43L98.282 100H97.624Z" fill="#4ACA3F"/>
<rect y="200" width="200" height="40" transform="rotate(-90 0 200)" fill="#4180E9"/>
<rect x="202" y="200" width="200" height="44" transform="rotate(-90 202 200)" fill="#E94646"/>
</svg>
